<svg width="50" height="50" viewBox="0 0 50 50" fill="none" xmlns="http://www.w3.org/2000/svg">
<g id="healthicons:animal-cow-outline">
<g id="Group">
<path id="Vector" d="M32.6417 29.299C32.6393 29.2975 32.6369 29.2961 32.6344 29.2948L32.6417 29.299Z" fill="white"/>
<path id="Vector_2" fill-rule="evenodd" clip-rule="evenodd" d="M20.2771 13.4125C20.9386 12.8292 21.4823 12.0417 21.6698 11.2896C21.7761 10.8625 21.8261 10.1865 21.3542 9.64063C20.8719 9.08126 20.1583 9.0198 19.5969 9.09063C19.1542 9.14688 18.8365 9.15834 18.5531 9.16772L18.5083 9.1698C18.1854 9.18022 17.8 9.19376 17.3761 9.33126C16.9333 9.47501 16.5146 9.72709 16.0136 10.0969C15.6863 10.337 15.3774 10.6013 15.0896 10.8875C13.3927 9.67918 11.2083 9.2073 7.78022 9.37501C7.36582 9.37915 6.97004 9.54775 6.67995 9.8437C6.38985 10.1397 6.22921 10.5387 6.23335 10.9531C6.23749 11.3675 6.40609 11.7633 6.70204 12.0534C6.998 12.3435 7.39707 12.5042 7.81148 12.5H9.30939C9.39898 12.5615 9.48439 12.6208 9.5646 12.6781L7.20002 15.6365C6.73893 15.6746 6.29206 15.8146 5.89168 16.0465C5.49129 16.2783 5.14738 16.5962 4.88477 16.9771C4.62216 17.358 4.4474 17.7924 4.37312 18.2491C4.29884 18.7058 4.32688 19.1732 4.45522 19.6177L4.75731 20.6594C4.94531 21.3099 5.3395 21.8817 5.88054 22.2888C6.42159 22.6959 7.08021 22.9162 7.75731 22.9167H11.0094C11.2361 22.9166 11.4566 22.9905 11.6375 23.1271L13.6615 24.6563C13.8386 24.7896 14.024 24.901 14.2156 24.9927C15.4208 28.2531 16.7177 31.0302 18.1865 32.8802L18.5198 36.8906C18.1749 37.156 17.9218 37.5227 17.796 37.9393C17.6702 38.3559 17.678 38.8014 17.8183 39.2133C17.9586 39.6253 18.2243 39.9829 18.5783 40.2361C18.9322 40.4893 19.3565 40.6253 19.7917 40.625H22.9167C23.1929 40.625 23.4579 40.5153 23.6533 40.3199C23.8486 40.1246 23.9583 39.8596 23.9583 39.5833V31.25H27.2083L27.25 31.4031C27.0131 31.5282 26.8336 31.7398 26.7486 31.9939C26.6637 32.2479 26.6799 32.525 26.7938 32.7674C26.9078 33.0098 27.1108 33.199 27.3606 33.2957C27.6105 33.3924 27.888 33.3891 28.1354 33.2865L28.2511 33.2386C28.6115 33.6583 29.0448 34.0302 29.5354 34.3427L29.5323 34.3511C29.4118 34.5933 29.3903 34.873 29.4724 35.1308C29.5545 35.3887 29.7337 35.6045 29.9721 35.7325C30.2104 35.8606 30.4893 35.8908 30.7496 35.8169C31.0099 35.743 31.2312 35.5707 31.3667 35.3365L31.4531 35.1761C32.1409 35.3556 32.851 35.4353 33.5615 35.4125L33.5886 35.5531C33.641 35.8244 33.7992 36.0638 34.0281 36.2185C34.2571 36.3732 34.5381 36.4306 34.8094 36.3781C35.0807 36.3256 35.32 36.1675 35.4747 35.9386C35.6294 35.7096 35.6869 35.4286 35.6344 35.1573L35.6146 35.0583C36.1232 34.8936 36.6101 34.668 37.0646 34.3865L37.2729 36.8896C36.9279 37.1547 36.6744 37.5212 36.5483 37.9377C36.4221 38.3541 36.4295 38.7997 36.5695 39.2117C36.7094 39.6237 36.9749 39.9816 37.3286 40.2351C37.6823 40.4886 38.1065 40.6249 38.5417 40.625H41.6667C41.943 40.625 42.2079 40.5153 42.4033 40.3199C42.5986 40.1246 42.7084 39.8596 42.7084 39.5833V21.875C42.7084 19.1365 42.0594 17.1458 40.9667 15.7844C41.8469 15.9542 42.4261 16.2479 42.8125 16.6198C43.3927 17.1771 43.75 18.1156 43.75 19.7906L44.1531 25.4365C43.9073 25.8167 43.75 26.4125 43.75 27.0823C43.75 28.2333 44.2167 29.1656 44.7917 29.1656C45.3667 29.1656 45.8334 28.2333 45.8334 27.0823C45.8334 26.4125 45.675 25.8167 45.4302 25.4365L45.8334 19.7917C45.8334 17.8813 45.4344 16.25 44.2563 15.1177C43.0927 14 41.3854 13.5792 39.2844 13.5438L36.1438 13.5417H22.3958C21.6146 13.5417 20.9136 13.4938 20.2771 13.4125ZM39.0917 16.8063C38.2813 15.9719 37.2156 15.6406 36.1542 15.6261H22.3958C20.0104 15.6261 18.2604 15.226 16.7979 14.7271C16.5824 14.6536 16.3969 14.5114 16.2698 14.3224C16.1427 14.1335 16.081 13.908 16.0943 13.6807C16.1075 13.4533 16.1949 13.2365 16.343 13.0636C16.4912 12.8906 16.692 12.7709 16.9146 12.7229C17.6261 12.5698 18.3 12.3052 18.7115 12.0021C19.0054 11.7825 19.257 11.5114 19.4542 11.2021C19.1146 11.2333 18.8458 11.2427 18.6292 11.25H18.6261C18.2511 11.2636 18.1417 11.2729 18.0188 11.3125C17.8938 11.3542 17.6865 11.4521 17.249 11.774C16.7156 12.1667 16.3156 12.5844 16.0823 12.9292C15.9974 13.0538 15.8864 13.1585 15.757 13.2361C15.6276 13.3136 15.483 13.3622 15.333 13.3783C15.183 13.3945 15.0313 13.3778 14.8884 13.3296C14.7455 13.2814 14.6147 13.2027 14.5052 13.099C13.7854 12.4188 12.9302 11.9135 11.6094 11.6448L11.7271 11.7511C11.9224 11.9293 12.0427 12.1753 12.0634 12.4389C12.0841 12.7026 12.0037 12.9643 11.8386 13.1708L8.52189 17.3167C8.42436 17.4388 8.30059 17.5374 8.15976 17.6052C8.01893 17.673 7.86465 17.7083 7.70835 17.7083H7.45835C7.29678 17.7083 7.13741 17.7458 6.99284 17.8179C6.84827 17.8901 6.72246 17.9948 6.62536 18.124C6.52826 18.2531 6.46253 18.403 6.43336 18.562C6.40419 18.7209 6.41239 18.8844 6.45731 19.0396L6.75731 20.0813C6.82009 20.2982 6.95167 20.4888 7.13222 20.6245C7.31277 20.7601 7.53252 20.8334 7.75835 20.8333H11.0104C11.6902 20.8333 12.3513 21.055 12.8938 21.4646L14.9177 22.9938C15.0406 23.0854 15.1656 23.1438 15.2896 23.175C15.4537 23.2173 15.6051 23.2989 15.7305 23.4129C15.856 23.5269 15.9517 23.6698 16.0094 23.8292C17.3094 27.4188 18.624 30.1771 19.9948 31.799C20.1344 31.9646 20.2188 32.1696 20.2365 32.3854L20.6573 37.4271C20.6792 37.6876 20.6024 37.9468 20.442 38.1533C20.2816 38.3598 20.0495 38.4984 19.7917 38.5417H21.875V30.2083C21.875 29.9321 21.9848 29.6671 22.1801 29.4718C22.3755 29.2764 22.6404 29.1667 22.9167 29.1667H29.4063L29.3125 29.0729C28.1354 27.8885 26.7677 26.3927 26.2208 25.5833L27.9458 24.4167C28.3698 25.0427 29.6063 26.4125 30.7896 27.6042C31.2716 28.0961 31.772 28.5697 32.2896 29.024C32.4802 29.1854 32.5917 29.2667 32.6344 29.2948C32.5796 29.2681 32.5219 29.2479 32.4625 29.2344C32.5964 29.285 32.7183 29.3627 32.8208 29.4625C34.2583 30.8615 35.8021 31.9042 38.1938 32.3063C38.4219 32.3448 38.6306 32.4581 38.7872 32.6285C38.9437 32.7988 39.0391 33.0164 39.0583 33.2469L39.4073 37.4281C39.4289 37.6885 39.352 37.9474 39.1916 38.1537C39.0313 38.3599 38.7993 38.4984 38.5417 38.5417H40.625V21.875C40.625 19.1875 39.9208 17.6604 39.0917 16.8063ZM33.3333 33.3333C31.3094 33.3333 29.9615 32.3365 29.4261 31.25H31.6781C32.4906 32.0063 33.375 32.6854 34.4177 33.2313C34.0813 33.2969 33.7198 33.3333 33.3333 33.3333Z" fill="white"/>
</g>
</g>
</svg>
