<svg width="36" height="36" viewBox="0 0 36 36" fill="none" xmlns="http://www.w3.org/2000/svg">
<g clip-path="url(#clip0_3_692)">
<path d="M0 1.125C0 0.826631 0.118526 0.540483 0.329505 0.329505C0.540483 0.118526 0.826631 0 1.125 0L34.875 0C35.1734 0 35.4595 0.118526 35.6705 0.329505C35.8815 0.540483 36 0.826631 36 1.125V7.875C36 8.17337 35.8815 8.45952 35.6705 8.6705C35.4595 8.88147 35.1734 9 34.875 9H31.5V13.5H34.875C35.1734 13.5 35.4595 13.6185 35.6705 13.8295C35.8815 14.0405 36 14.3266 36 14.625V21.375C36 21.6734 35.8815 21.9595 35.6705 22.1705C35.4595 22.3815 35.1734 22.5 34.875 22.5H31.5V27H34.875C35.1734 27 35.4595 27.1185 35.6705 27.3295C35.8815 27.5405 36 27.8266 36 28.125V34.875C36 35.1734 35.8815 35.4595 35.6705 35.6705C35.4595 35.8815 35.1734 36 34.875 36H1.125C0.826631 36 0.540483 35.8815 0.329505 35.6705C0.118526 35.4595 0 35.1734 0 34.875V28.125C0 27.8266 0.118526 27.5405 0.329505 27.3295C0.540483 27.1185 0.826631 27 1.125 27H4.5V22.5H1.125C0.826631 22.5 0.540483 22.3815 0.329505 22.1705C0.118526 21.9595 0 21.6734 0 21.375V14.625C0 14.3266 0.118526 14.0405 0.329505 13.8295C0.540483 13.6185 0.826631 13.5 1.125 13.5H4.5V9H1.125C0.826631 9 0.540483 8.88147 0.329505 8.6705C0.118526 8.45952 0 8.17337 0 7.875V1.125ZM6.75 9V13.5H16.875V9H6.75ZM19.125 9V13.5H29.25V9H19.125ZM6.75 22.5V27H16.875V22.5H6.75ZM19.125 22.5V27H29.25V22.5H19.125ZM2.25 2.25V6.75H10.125V2.25H2.25ZM12.375 2.25V6.75H23.625V2.25H12.375ZM25.875 2.25V6.75H33.75V2.25H25.875ZM2.25 15.75V20.25H10.125V15.75H2.25ZM12.375 15.75V20.25H23.625V15.75H12.375ZM25.875 15.75V20.25H33.75V15.75H25.875ZM2.25 29.25V33.75H10.125V29.25H2.25ZM12.375 29.25V33.75H23.625V29.25H12.375ZM25.875 29.25V33.75H33.75V29.25H25.875Z" fill="white"/>
</g>
<defs>
<clipPath id="clip0_3_692">
<rect width="36" height="36" fill="white"/>
</clipPath>
</defs>
</svg>
