<svg width="40" height="40" viewBox="0 0 40 40" fill="none" xmlns="http://www.w3.org/2000/svg">
<g id="streamline:shopping-catergories-chair-design-lounge-furniture-chair-interior-decorate-armchair-decoration" clip-path="url(#clip0_3_703)">
<path id="Vector" d="M7.14287 21.4285H4.28573C3.52797 21.4285 2.80124 21.7296 2.26543 22.2654C1.72961 22.8012 1.42859 23.5279 1.42859 24.2857V38.5714H10M7.14287 21.4285C7.90064 21.4285 8.62736 21.7296 9.16318 22.2654C9.699 22.8012 10 23.5279 10 24.2857V38.5714M7.14287 21.4285V15.7143C7.14287 13.441 8.04593 11.2608 9.65339 9.65334C11.2608 8.04588 13.441 7.14282 15.7143 7.14282H24.2857C26.559 7.14282 28.7392 8.04588 30.3466 9.65334C31.9541 11.2608 32.8572 13.441 32.8572 15.7143V21.4285M10 38.5714H30M32.8572 21.4285H35.7143C36.4721 21.4285 37.1988 21.7296 37.7346 22.2654C38.2704 22.8012 38.5714 23.5279 38.5714 24.2857V38.5714H30M32.8572 21.4285C32.0994 21.4285 31.3727 21.7296 30.8369 22.2654C30.301 22.8012 30 23.5279 30 24.2857V38.5714M10 27.1428H30" stroke="white" stroke-width="4.28571" stroke-linecap="round" stroke-linejoin="round"/>
</g>
<defs>
<clipPath id="clip0_3_703">
<rect width="40" height="40" fill="white"/>
</clipPath>
</defs>
</svg>
