<svg width="50" height="50" viewBox="0 0 50 50" fill="none" xmlns="http://www.w3.org/2000/svg">
<path d="M18.75 43.75V45.8333H14.5834V43.75C13.4783 43.75 12.4185 43.311 11.6371 42.5296C10.8557 41.7482 10.4167 40.6884 10.4167 39.5833V8.33329C10.4167 7.22822 10.8557 6.16842 11.6371 5.38701C12.4185 4.60561 13.4783 4.16663 14.5834 4.16663H35.4167C36.5218 4.16663 37.5816 4.60561 38.363 5.38701C39.1444 6.16842 39.5834 7.22822 39.5834 8.33329V39.5833C39.5834 40.6884 39.1444 41.7482 38.363 42.5296C37.5816 43.311 36.5218 43.75 35.4167 43.75V45.8333H31.25V43.75H18.75ZM14.5834 8.33329V18.75H35.4167V8.33329H14.5834ZM14.5834 39.5833H35.4167V22.9166H14.5834V39.5833ZM16.6667 25H20.8334V31.25H16.6667V25ZM16.6667 12.5H20.8334V16.6666H16.6667V12.5Z" fill="white"/>
</svg>
